<svg width="121" height="51" viewBox="0 0 121 51" fill="none" xmlns="http://www.w3.org/2000/svg">
<path d="M2 28.563C5.5 24.0195 13.2943 25.2272 16.4666 24.8853C17.8246 24.7389 22.6607 22.693 21.0579 20.6685C20.5563 20.0348 19.4284 19.3404 17.5 19.5195C14.6813 19.7813 14.2518 25.5183 15.1442 26.9801C17 30.0195 19 30.6144 22.1324 30.6144C26.0455 30.6144 28.119 25.5665 29.1333 23.1414C29.9275 21.2424 31.2876 20.6146 33.2832 21.1442C35.2788 21.6739 33.3806 26.6208 33.5 30C33.5353 30.9979 34.6779 28.3314 35.0397 27.6078C36.0667 25.5538 37.0336 20.49 39.924 20.4821C42.0935 20.4762 42.16 26.6494 42.16 28.3821C42.16 31.7456 44.6567 19.6513 48 20.0195C52.2033 20.4824 48 30.5877 53.0086 30.6126C56.004 30.6275 57.2809 22.8214 58.5 20.6685C60 18.0195 59.2706 29.95 63 30.2435C69.6595 30.7677 70.7285 17.7941 71.618 13.5663C72.4799 9.46988 73.5252 1.36776 67.6509 2.0393C62.4327 2.63583 67.1812 18.212 68 20.6685C69.462 25.0543 71.2403 32.0301 75.5 29.1636C77.5 27.8177 77.0278 23.5322 79 21.1442C80.3415 19.5199 80.5 29.5195 85 29.5195C86.6316 29.5195 87.517 28.0879 88 26.5195C88.6137 24.5267 89.4329 21.3342 89.6157 20.2433C90.1791 16.8792 91.5006 26.8445 91.7865 30.2435C92.1174 34.1782 95.0876 48.7229 88.2987 48.4023C87.3759 48.3588 86.7846 47.7421 86.3034 47.0203C83.189 42.3487 87.8295 37.4341 90.6938 33.999C93.7282 30.3599 95.6993 29.4096 97.1484 28.326C103.267 23.7502 111.039 22.4123 118.5 22.4123" stroke="#694D39" stroke-width="4" stroke-linecap="round"/>
<path d="M58.255 14.3643C58.3599 14.9065 59.8794 14.3339 59.2681 13.7041C59.089 13.5195 58.7308 13.5195 58 13.5195" stroke="#694D39" stroke-width="4" stroke-linecap="round"/>
</svg>
