<svg width="36" height="45" viewBox="0 0 36 45" fill="none" xmlns="http://www.w3.org/2000/svg">
<path d="M17.767 0.0639969C15.7898 0.254505 13.7491 0.834471 12.4843 1.27089C12.2274 1.35953 12.0158 1.54693 11.8965 1.79242C11.7772 2.03781 11.7599 2.32026 11.848 2.57862C12.7853 5.32611 13.1992 8.71008 13.2034 11.9878C13.2075 15.2662 12.8014 18.3545 12.1551 20.5022C12.0549 20.835 12.1273 21.197 12.3492 21.4635C12.5716 21.7299 12.9136 21.8668 13.2568 21.8252C14.377 21.6887 15.2553 21.5465 15.9948 21.4309C16.7406 21.3143 17.3266 21.2271 17.9091 21.1876C19.0365 21.1112 20.2181 21.2063 22.4601 21.7338C22.7827 21.8097 23.1225 21.7237 23.3709 21.5032C23.6192 21.2827 23.7466 20.9541 23.7121 20.6226C23.5598 19.1591 23.2698 17.6826 22.9799 16.2266C22.6869 14.7553 22.3916 13.2989 22.2069 11.8093C21.8402 8.85251 21.915 5.82339 23.3147 2.58441C23.467 2.23145 23.4104 1.8224 23.1691 1.52394C22.5324 0.736966 21.6165 0.339807 20.698 0.15286C19.7764 -0.0346063 18.7545 -0.0311126 17.767 0.0639969Z" fill="#AF976D"/>
<path d="M22.6824 24.6483C20.3106 24.8419 16.8054 24.9778 13.5024 23.9807C13.1832 23.8846 12.8373 23.95 12.5755 24.1574C12.3136 24.3648 12.169 24.688 12.187 25.0229C12.2771 26.6913 12.4724 28.3639 12.6711 29.9791C12.8713 31.6062 13.073 33.1657 13.1918 34.658C13.4316 37.6712 13.3009 40.1784 12.2585 42.0879C12.1194 42.3427 12.0929 42.6458 12.187 42.9207C12.2814 43.1957 12.4879 43.418 12.7538 43.5322C14.8613 44.4364 16.424 44.9076 17.9392 44.9877C19.4576 45.0678 20.8403 44.7493 22.5508 44.2476C23.0005 44.1154 23.3041 43.6927 23.2872 43.2215C23.0609 36.95 21.5518 33.6847 23.7502 25.9579C23.8426 25.6329 23.77 25.2823 23.5571 25.0208C23.3441 24.7594 23.0171 24.621 22.6824 24.6483Z" fill="#AF976D"/>
<path d="M34.4636 14.5753C33.0867 14.9218 31.0663 15.7457 29.431 17.1286C27.7782 18.5264 26.4245 20.5895 26.7277 23.3358C26.7853 23.8574 27.224 24.2531 27.7454 24.2533C29.0893 24.2533 31.0672 23.8188 32.7321 22.5028C34.443 21.1504 35.7353 18.9334 35.7353 15.5753C35.7353 15.2581 35.5899 14.9577 35.3414 14.7625C35.0931 14.5677 34.7691 14.4987 34.4636 14.5753ZM33.5819 17.0341C33.2893 18.9242 32.4302 20.1214 31.4664 20.8831C30.6054 21.5635 29.6137 21.9259 28.7612 22.0863C28.9112 20.7226 29.6789 19.6093 30.7466 18.7061C31.6185 17.9688 32.65 17.4131 33.5819 17.0341Z" fill="#AF976D"/>
<path d="M31.2651 5.09887C30.0013 5.74891 28.2178 7.01026 26.9346 8.72875C25.6377 10.4657 24.7814 12.7829 25.6924 15.3896C25.8654 15.8846 26.3815 16.1706 26.8896 16.0524C28.1988 15.7473 30.0283 14.875 31.3553 13.2151C32.7189 11.5092 33.481 9.05597 32.7282 5.78442C32.6571 5.47537 32.4481 5.2157 32.1622 5.08191C31.8767 4.94849 31.5455 4.95481 31.2651 5.09887ZM30.9573 7.69438C31.0959 9.60221 30.5273 10.9635 29.7592 11.9244C29.0729 12.7827 28.1879 13.3608 27.3934 13.7107C27.2339 12.3481 27.7322 11.0892 28.5699 9.96689C29.254 9.05067 30.1344 8.27518 30.9573 7.69438Z" fill="#AF976D"/>
<path d="M1.75948 19.1181C3.02329 19.7681 4.80684 21.0294 6.09005 22.7479C7.38687 24.4848 8.24319 26.802 7.33221 29.4088C7.15918 29.9038 6.64312 30.1898 6.13505 30.0716C4.8258 29.7665 2.99633 28.8942 1.66931 27.2343C0.305698 25.5284 -0.456339 23.0752 0.296432 19.8036C0.367543 19.4946 0.576558 19.2349 0.862391 19.1011C1.14794 18.9677 1.47907 18.974 1.75948 19.1181ZM2.06735 21.7136C1.92868 23.6214 2.49726 24.9827 3.26543 25.9436C3.95175 26.8019 4.83667 27.38 5.63126 27.7299C5.79074 26.3673 5.29245 25.1083 4.4547 23.9861C3.77063 23.0699 2.8902 22.2944 2.06735 21.7136Z" fill="#AF976D"/>
<path d="M10.5883 15.2581C10.9652 15.294 11.731 15.3415 11.9799 15.3458C12.158 15.3488 12.3124 15.2816 12.4702 15.2391C12.6444 15.1921 12.7906 15.0968 12.9889 14.9625C13.1473 14.8494 13.2342 14.7425 13.2983 14.6721C13.3337 14.6369 13.3749 14.6028 13.4174 14.5677" stroke="#694D39" stroke-width="1.5" stroke-linecap="round"/>
<path d="M17.643 13.3192C17.8819 13.3419 18.3673 13.3627 18.5215 13.358C18.6777 13.3532 18.831 13.3301 19.0254 13.3036C19.2285 13.276 19.4124 13.2702 19.6921 13.1502C20.0205 13.0093 20.1202 12.8263 20.2917 12.7017C20.5372 12.4817 20.5986 12.3724 20.6564 12.3014C20.6855 12.2656 20.7142 12.2303 20.7438 12.194" stroke="#694D39" stroke-width="1.5" stroke-linecap="round"/>
<path d="M15.5917 17.5379C15.8054 17.5582 16.2399 17.5742 16.4001 17.5064C16.5551 17.4407 16.7205 17.3643 16.9489 17.1817C16.9987 17.1348 17.0274 17.0995 17.0502 17.0631C17.0731 17.0267 17.0892 16.9902 17.1439 16.9563" stroke="#694D39" stroke-width="1.5" stroke-linecap="round"/>
</svg>
